<svg viewBox="0 0 888 500" fill="none" xmlns="http://www.w3.org/2000/svg"><style>.st1{fill:#aca79b;stroke:#aca79b}</style><path style="fill:#ecebe7" d="M0 0h888v499.5H0z"/><g id="c"><path class="st1" d="M390.2 341.7h-11.3c-5.2 0-9.6-3.7-10.5-8.9l-11.9-72.9c-.2-1.1.5-2.1 1.6-2.2 1.1-.2 2.1.5 2.2 1.6l11.9 72.9c.5 3.3 3.3 5.7 6.6 5.7h11.3c2 0 3.9-.9 5.1-2.4s1.8-3.5 1.5-5.5l-7.1-43.2c-1-6 .6-12.2 4.3-17.1l6-7.9c.7-.9 1.9-1 2.7-.4.9.7 1 1.9.4 2.7l-6 7.9c-3 4-4.3 9.1-3.5 14.1l7.1 43.2c.5 3.1-.4 6.2-2.4 8.6-2 2.4-4.9 3.7-8 3.8zM337.1 251.1h-.3c-10.2-1.5-17.9-10.4-17.9-20.7s7.7-19.2 17.9-20.7c1.1-.2 2.1.6 2.2 1.6s-.6 2.1-1.6 2.2c-8.3 1.2-14.5 8.4-14.5 16.8s6.2 15.6 14.5 16.8c1.1.2 1.8 1.1 1.6 2.2-.1 1.1-.9 1.8-1.9 1.8zM406.4 255.2c-1.1 0-2-.9-2-2v-45.7c0-1.1.9-2 2-2s2 .9 2 2v45.7c0 1.1-.9 2-2 2zM567 232.3h-25.1c-1.1 0-2-.9-2-2s.9-2 2-2H567c1.1 0 2 .9 2 2 0 1.2-.9 2-2 2zM567 280.4c-.4 0-.7-.1-1-.3l-25.1-15.2c-.9-.5-1.2-1.8-.7-2.7.5-.9 1.8-1.2 2.7-.7l25.1 15.2c.9.5 1.2 1.8.7 2.7-.3.7-1 1-1.7 1zM541.9 199.6c-.7 0-1.3-.4-1.7-.9-.5-.9-.3-2.1.7-2.7l25.1-15.2c.9-.5 2.1-.3 2.7.7.5.9.3 2.1-.7 2.7l-25.1 15.2c-.3.1-.6.2-1 .2z"/><path class="st1" d="M498.8 302.6c-1.4 0-2.8-.5-3.9-1.4-43.4-36.7-117.6-40-147.5-39.7h-.1c-3.2 0-6.3-1.2-8.6-3.5s-3.6-5.4-3.6-8.7v-37.6c0-3.3 1.3-6.4 3.6-8.7 2.3-2.3 5.4-3.5 8.7-3.5 29.8.5 104-2.4 147.3-39.6 1.8-1.6 4.3-1.9 6.5-.9s3.6 3.2 3.6 5.6v131.9c0 2.4-1.4 4.6-3.6 5.6-.6.3-1.5.5-2.4.5zm-148.2-45.1c32.1 0 103.9 4.4 146.8 40.7.7.5 1.6.7 2.3.3.8-.4 1.3-1.1 1.3-2v-132c0-.9-.5-1.7-1.3-2-.8-.4-1.7-.2-2.3.3-44.3 38.1-119.6 41.1-149.9 40.6-2.2-.1-4.3.8-5.9 2.4s-2.5 3.7-2.5 5.9v37.6c0 2.2.9 4.3 2.5 5.9 1.6 1.6 3.6 2.3 5.9 2.4 1-.1 2-.1 3.1-.1z"/><path class="st1" d="M489.3 296.3c-1.1 0-2-.9-2-2V166.7c0-1.1.9-2 2-2s2 .9 2 2v127.7c0 1-.9 1.9-2 1.9zM503 260c-.8 0-1.6-.5-1.8-1.3-.4-1 .2-2.1 1.2-2.5 11.1-3.7 18.6-14.1 18.6-25.8s-7.5-22.1-18.6-25.8c-1-.4-1.6-1.4-1.2-2.5.4-1 1.4-1.6 2.5-1.2 12.7 4.2 21.3 16.1 21.3 29.5s-8.6 25.3-21.3 29.5c-.3.1-.5.2-.7.1z"/></g></svg>